<svg xmlns="http://www.w3.org/2000/svg" xmlns:xlink="http://www.w3.org/1999/xlink" width="1080" zoomAndPan="magnify" viewBox="0 0 810 809.999993" height="1080" preserveAspectRatio="xMidYMid meet" version="1.0"><path fill="#6b7280" d="M 659.785156 371.144531 C 655.957031 362.527344 651.695312 354.128906 647.003906 345.949219 C 642.308594 337.769531 637.207031 329.851562 631.699219 322.199219 C 626.191406 314.542969 620.304688 307.191406 614.039062 300.144531 C 607.777344 293.097656 601.167969 286.386719 594.210938 280.019531 L 571.191406 258.898438 C 570.996094 258.726562 570.792969 258.566406 570.578125 258.414062 C 570.363281 258.265625 570.140625 258.132812 569.910156 258.011719 C 569.679688 257.890625 569.441406 257.78125 569.199219 257.691406 C 568.953125 257.597656 568.707031 257.519531 568.453125 257.457031 C 568.199219 257.394531 567.941406 257.351562 567.683594 257.320312 C 567.425781 257.289062 567.164062 257.273438 566.902344 257.273438 C 566.644531 257.277344 566.382812 257.292969 566.125 257.324219 C 565.867188 257.359375 565.609375 257.40625 565.355469 257.472656 C 565.105469 257.535156 564.855469 257.613281 564.613281 257.710938 C 564.371094 257.804688 564.132812 257.914062 563.902344 258.035156 C 563.671875 258.160156 563.453125 258.296875 563.238281 258.449219 C 563.027344 258.597656 562.824219 258.761719 562.628906 258.9375 C 562.4375 259.113281 562.253906 259.296875 562.085938 259.496094 C 561.914062 259.691406 561.757812 259.902344 561.613281 260.117188 C 561.464844 260.335938 561.335938 260.558594 561.21875 260.792969 C 561.101562 261.023438 560.996094 261.265625 560.910156 261.507812 L 550.625 291.015625 C 544.21875 309.523438 532.433594 328.429688 515.742188 347.019531 C 514.636719 348.203125 513.371094 348.519531 512.5 348.601562 C 511.628906 348.679688 510.285156 348.519531 509.097656 347.414062 C 507.992188 346.464844 507.4375 345.039062 507.515625 343.617188 C 510.441406 295.996094 496.203125 242.289062 465.039062 183.832031 C 439.25 135.265625 403.417969 97.375 358.644531 70.953125 L 325.976562 51.734375 C 321.707031 49.203125 316.246094 52.523438 316.484375 57.507812 L 318.226562 95.476562 C 319.410156 121.421875 316.40625 144.359375 309.289062 163.425781 C 300.585938 186.757812 288.089844 208.433594 272.109375 227.890625 C 260.953125 241.457031 248.429688 253.613281 234.535156 264.359375 C 226.222656 270.746094 218.296875 277.585938 210.753906 284.867188 C 203.214844 292.152344 196.105469 299.835938 189.429688 307.921875 C 182.753906 316.007812 176.554688 324.445312 170.832031 333.230469 C 165.109375 342.015625 159.898438 351.09375 155.199219 360.464844 C 150.507812 369.917969 146.378906 379.609375 142.808594 389.539062 C 139.234375 399.464844 136.242188 409.566406 133.832031 419.839844 C 131.421875 430.113281 129.609375 440.488281 128.394531 450.96875 C 127.179688 461.453125 126.566406 471.96875 126.5625 482.519531 C 126.5625 519.855469 133.917969 556.003906 148.472656 590.097656 C 155.5 606.511719 164.039062 622.09375 174.085938 636.851562 C 184.132812 651.609375 195.5 665.265625 208.195312 677.820312 C 233.824219 703.132812 263.566406 723.066406 296.710938 736.910156 C 331.039062 751.304688 367.425781 758.582031 405 758.582031 C 442.574219 758.582031 478.960938 751.304688 513.289062 736.988281 C 529.820312 730.109375 545.53125 721.695312 560.425781 711.753906 C 575.316406 701.8125 589.109375 690.527344 601.804688 677.898438 C 627.433594 652.585938 647.523438 623.003906 661.527344 590.175781 C 668.792969 573.175781 674.269531 555.621094 677.960938 537.503906 C 681.648438 519.386719 683.476562 501.085938 683.4375 482.597656 C 683.4375 443.996094 675.527344 406.503906 659.785156 371.144531 Z M 563.992188 639.535156 C 521.515625 681.617188 465.117188 704.714844 405 704.714844 C 344.882812 704.714844 288.484375 681.617188 246.003906 639.535156 C 203.6875 597.53125 180.351562 541.84375 180.351562 482.597656 C 180.351562 448.1875 188.101562 415.203125 203.371094 384.511719 C 218.242188 354.53125 240.390625 327.71875 267.285156 307.070312 C 284.496094 293.910156 299.945312 278.933594 313.636719 262.140625 C 333.414062 238.015625 348.917969 211.121094 359.675781 182.25 C 364.097656 170.308594 367.289062 158.050781 369.246094 145.46875 C 388.308594 163.027344 404.289062 184.226562 417.65625 209.066406 C 444.078125 258.582031 456.257812 302.640625 453.886719 340.136719 C 453.742188 342.335938 453.726562 344.539062 453.835938 346.742188 C 453.941406 348.945312 454.171875 351.132812 454.527344 353.308594 C 454.882812 355.484375 455.359375 357.636719 455.957031 359.757812 C 456.554688 361.878906 457.269531 363.960938 458.101562 366.003906 C 458.9375 368.046875 459.882812 370.035156 460.9375 371.96875 C 461.996094 373.90625 463.160156 375.773438 464.429688 377.578125 C 465.699219 379.378906 467.066406 381.105469 468.527344 382.753906 C 469.992188 384.40625 471.546875 385.964844 473.1875 387.4375 C 476.039062 390.015625 479.117188 392.285156 482.417969 394.25 C 485.722656 396.214844 489.1875 397.835938 492.8125 399.113281 C 496.4375 400.390625 500.15625 401.296875 503.960938 401.835938 C 507.765625 402.375 511.589844 402.53125 515.425781 402.308594 C 531.007812 401.519531 545.328125 394.636719 555.769531 383.007812 C 566.289062 371.222656 575.386719 359.199219 582.980469 346.9375 C 594.054688 361.097656 603.308594 376.523438 610.664062 393.132812 C 623.242188 421.453125 629.648438 451.589844 629.648438 482.597656 C 629.648438 541.84375 606.3125 597.613281 563.996094 639.535156 Z M 563.992188 639.535156 " fill-opacity="1" fill-rule="nonzero"/></svg>